<?xml version="1.0" standalone="no"?>
<!DOCTYPE svg PUBLIC "-//W3C//DTD SVG 20010904//EN"
 "http://www.w3.org/TR/2001/REC-SVG-20010904/DTD/svg10.dtd">
<svg version="1.0" xmlns="http://www.w3.org/2000/svg"
 width="120.000000pt" height="120.000000pt" viewBox="0 0 120.000000 120.000000"
 preserveAspectRatio="xMidYMid meet">

<g transform="translate(0.000000,120.000000) scale(0.100000,-0.100000)"
fill="#000000" stroke="none">
<path d="M565 1020 c-11 -5 -14 -9 -7 -9 24 -2 11 -19 -20 -25 -34 -7 -50 0
-29 13 8 5 0 8 -21 7 -22 -1 -43 -11 -63 -30 -16 -15 -46 -36 -66 -47 -26 -13
-38 -27 -42 -48 -4 -16 -16 -38 -28 -49 -17 -16 -20 -27 -14 -54 13 -64 37
-128 48 -129 7 0 31 0 54 1 37 1 44 -2 52 -22 10 -27 41 -57 41 -40 0 6 6 9
14 6 7 -3 28 7 46 23 38 31 113 124 106 130 -7 7 -126 -29 -126 -38 0 -5 -5
-9 -12 -9 -6 0 -21 -8 -32 -17 -20 -18 -20 -18 -3 10 10 15 15 32 12 37 -3 6
1 7 9 4 10 -4 16 -1 16 7 0 11 2 11 8 1 7 -10 15 -10 37 -2 15 6 48 15 73 21
61 13 72 24 72 69 0 21 6 43 14 49 8 7 46 13 86 13 39 1 74 6 77 11 10 17 -87
97 -116 96 -25 -1 -25 -2 4 -8 26 -5 29 -11 30 -43 l2 -37 -43 1 c-54 3 -63
-6 -73 -68 -6 -36 -9 -41 -10 -18 -1 40 -22 66 -52 68 -23 1 -24 4 -24 69 0
37 0 67 0 66 0 0 -9 -4 -20 -9z m-71 -45 c19 -29 51 -33 65 -8 5 10 13 15 17
10 4 -4 0 -15 -9 -25 -23 -25 -22 -34 13 -67 30 -28 39 -55 20 -55 -5 0 -10 5
-10 12 0 12 -39 58 -49 58 -3 0 -6 -16 -6 -36 0 -23 6 -40 19 -49 18 -14 18
-14 0 -13 -11 1 -31 -2 -47 -5 l-28 -8 21 21 c14 14 20 33 20 62 0 33 -3 39
-12 30 -7 -7 -19 -12 -27 -12 -12 0 -9 6 8 19 23 17 23 20 8 42 l-17 23 -11
-32 c-6 -18 -15 -32 -20 -32 -5 0 -5 10 1 24 5 13 6 33 3 45 -8 30 21 27 41
-4z m46 -5 c0 -5 -5 -10 -11 -10 -5 0 -7 5 -4 10 3 6 8 10 11 10 2 0 4 -4 4
-10z m-125 -35 c-16 -13 -31 -22 -34 -19 -3 3 8 16 24 29 17 13 32 21 35 18 3
-3 -8 -15 -25 -28z m422 0 c36 -32 17 -32 -22 0 -16 13 -25 24 -18 25 7 0 25
-11 40 -25z m-451 -40 c27 -14 27 -15 7 -15 -24 0 -29 -15 -14 -39 8 -12 12
-12 25 -2 11 9 16 10 16 2 0 -6 -4 -11 -10 -11 -5 0 -10 -7 -10 -15 0 -8 5
-15 10 -15 6 0 10 -5 10 -12 0 -9 -3 -9 -12 0 -7 7 -28 13 -47 13 -24 1 -28 3
-13 6 26 5 29 30 7 59 -16 21 -19 44 -6 44 5 0 22 -7 37 -15z m109 -47 c11
-10 15 -18 8 -18 -7 0 -18 6 -25 13 -7 8 -20 12 -30 9 -22 -5 -37 27 -17 39 9
5 19 2 29 -9 8 -9 24 -25 35 -34z m-161 -2 c-3 -9 -10 -16 -15 -16 -5 0 -4 9
3 20 14 22 21 20 12 -4z m126 -61 c5 -6 5 -17 0 -25 -15 -25 -28 2 -22 45 5
31 7 35 10 15 2 -14 8 -30 12 -35z m190 35 c0 -5 -4 -10 -10 -10 -5 0 -10 5
-10 10 0 6 5 10 10 10 6 0 10 -4 10 -10z m-34 -11 c8 -14 -11 -33 -25 -25 -11
7 -4 36 9 36 5 0 12 -5 16 -11z m-301 -10 c10 -15 -1 -23 -20 -15 -9 3 -13 10
-10 16 8 13 22 13 30 -1z m85 -61 c0 -15 -21 -7 -48 17 l-26 25 36 -18 c21 -9
37 -20 38 -24z"/>
<path d="M610 1022 c6 -2 8 -21 4 -45 l-5 -42 40 43 c23 26 42 38 46 32 4 -6
-13 -28 -37 -50 -40 -36 -42 -40 -27 -55 23 -24 59 -1 59 37 0 28 15 39 22 16
2 -6 10 -8 16 -4 17 10 15 26 -3 26 -8 0 -12 6 -9 14 8 20 -13 30 -68 30 -27
1 -44 0 -38 -2z m50 -16 c0 -11 -19 -15 -25 -6 -3 5 1 10 9 10 9 0 16 -2 16
-4z m10 -66 c0 -5 -5 -10 -11 -10 -5 0 -7 5 -4 10 3 6 8 10 11 10 2 0 4 -4 4
-10z"/>
<path d="M951 953 c-16 -10 -19 -18 -11 -23 8 -5 3 -17 -16 -41 l-28 -34 26
24 c15 12 31 20 37 17 10 -6 28 60 19 69 -2 3 -15 -3 -27 -12z"/>
<path d="M736 941 c-3 -5 1 -12 10 -15 20 -8 29 -1 19 13 -8 13 -22 14 -29 2z"/>
<path d="M740 855 c15 -18 -1 -20 -18 -3 -9 9 -12 -6 -12 -67 l0 -80 27 28
c27 26 27 27 8 41 -19 14 -19 15 -2 21 9 4 17 14 17 22 0 8 10 23 23 34 l22
18 -39 1 c-33 0 -37 -2 -26 -15z"/>
<path d="M825 860 c3 -5 12 -7 20 -3 21 7 19 13 -6 13 -11 0 -18 -4 -14 -10z"/>
<path d="M881 833 c-11 -12 -12 -20 -2 -35 9 -15 8 -20 -6 -26 -10 -4 -18 -14
-18 -22 0 -8 -6 -14 -14 -12 -8 2 -18 -3 -22 -9 -6 -10 -11 -10 -23 0 -13 11
-20 11 -41 -3 -28 -18 -33 -36 -10 -36 8 0 15 -9 15 -20 l0 -21 22 21 c15 13
35 20 64 20 57 0 64 12 56 92 -6 57 -9 64 -21 51z"/>
<path d="M921 779 c-1 -44 -6 -80 -13 -87 -7 -7 -32 -12 -57 -12 -35 0 -51 -6
-72 -26 l-28 -27 -7 27 c-3 14 -13 26 -21 26 -13 0 -103 -90 -111 -112 -2 -5
14 -25 35 -46 21 -21 47 -55 56 -75 12 -24 25 -37 38 -37 25 0 36 27 21 51
-19 30 -14 36 35 42 34 3 52 12 63 27 26 37 74 86 90 92 11 3 14 20 11 79 -1
40 -6 78 -10 84 -5 5 -13 24 -19 40 -9 26 -11 20 -11 -46z m29 -15 c0 -8 -4
-12 -10 -9 -5 3 -10 10 -10 16 0 5 5 9 10 9 6 0 10 -7 10 -16z m-115 -124 c10
-11 16 -20 13 -20 -3 0 -13 9 -23 20 -10 11 -16 20 -13 20 3 0 13 -9 23 -20z
m113 8 c-6 -18 -25 -20 -31 -3 -5 10 0 15 14 15 12 0 19 -5 17 -12z m-228 -30
c0 -19 -2 -20 -10 -8 -13 19 -13 30 0 30 6 0 10 -10 10 -22z m85 2 c3 -5 1
-10 -6 -10 -7 0 -21 -8 -33 -17 -20 -18 -20 -18 0 9 21 30 29 34 39 18z m80
-20 c0 -7 -6 -15 -12 -17 -8 -3 -13 4 -13 17 0 13 5 20 13 18 6 -3 12 -11 12
-18z m-149 -31 c10 -17 -13 -36 -27 -22 -12 12 -4 33 11 33 5 0 12 -5 16 -11z
m68 -10 c-3 -5 -10 -7 -15 -3 -5 3 -7 10 -3 15 3 5 10 7 15 3 5 -3 7 -10 3
-15z m-133 -26 c13 -16 12 -17 -3 -4 -10 7 -18 15 -18 17 0 8 8 3 21 -13z"/>
<path d="M680 750 c-1 -8 -2 -21 -1 -28 1 -8 -3 -20 -10 -28 -14 -17 -4 -33
12 -17 6 6 9 28 6 49 -2 22 -5 32 -7 24z"/>
<path d="M635 700 c-3 -5 -1 -10 4 -10 6 0 11 5 11 10 0 6 -2 10 -4 10 -3 0
-8 -4 -11 -10z"/>
<path d="M591 649 c-31 -39 -115 -87 -168 -95 -39 -6 -43 -9 -43 -35 0 -24 -4
-29 -23 -29 -13 0 -28 -5 -34 -11 -8 -8 -17 -7 -32 3 -17 10 -21 21 -19 48 3
30 8 36 33 42 29 6 29 6 -5 5 -34 -2 -35 -4 -38 -44 -2 -32 2 -47 18 -63 16
-16 25 -19 33 -11 6 6 21 11 33 11 13 0 29 6 36 13 7 7 39 18 70 24 32 7 78
26 102 42 51 35 115 111 94 111 -8 0 -19 -4 -26 -10 -9 -7 -9 -7 -2 2 6 7 10
16 10 20 0 16 -15 6 -39 -23z m19 -23 c0 -3 -4 -8 -10 -11 -5 -3 -10 -1 -10 4
0 6 5 11 10 11 6 0 10 -2 10 -4z m-100 -76 c0 -5 -4 -10 -10 -10 -5 0 -10 5
-10 10 0 6 5 10 10 10 6 0 10 -4 10 -10z"/>
<path d="M223 525 c0 -33 2 -45 4 -27 2 18 2 45 0 60 -2 15 -4 0 -4 -33z"/>
<path d="M298 543 c7 -3 16 -2 19 1 4 3 -2 6 -13 5 -11 0 -14 -3 -6 -6z"/>
<path d="M298 503 c7 -3 16 -2 19 1 4 3 -2 6 -13 5 -11 0 -14 -3 -6 -6z"/>
<path d="M20 335 c0 -3 7 -17 16 -30 10 -15 12 -25 5 -25 -6 0 -11 -4 -11 -10
0 -21 21 -9 40 23 25 40 26 60 1 28 l-19 -24 -6 21 c-6 19 -26 32 -26 17z"/>
<path d="M110 316 c0 -13 -3 -31 -6 -40 -3 -9 -2 -16 4 -16 6 0 13 14 17 30 4
17 11 30 16 30 5 0 9 -13 9 -30 0 -16 5 -30 10 -30 6 0 10 18 10 40 0 38 -2
40 -30 40 -25 0 -30 -4 -30 -24z"/>
<path d="M190 337 c0 -5 5 -17 11 -28 7 -15 7 -24 -2 -35 -9 -11 -8 -14 5 -14
8 0 25 18 36 40 11 22 16 40 11 40 -5 0 -13 -10 -17 -22 l-6 -21 -19 24 c-10
13 -19 20 -19 16z"/>
<path d="M271 318 c-1 -23 3 -28 24 -28 16 0 25 -6 25 -16 0 -8 5 -12 10 -9
12 8 13 62 1 69 -5 3 -11 -3 -14 -14 -7 -27 -26 -25 -37 3 -8 21 -9 21 -9 -5z"/>
<path d="M356 328 c-4 -9 -6 -27 -4 -40 3 -20 9 -23 56 -26 l52 -3 0 40 c0 23
-4 41 -10 41 -5 0 -10 -13 -10 -30 0 -42 -27 -40 -33 3 l-4 32 -1 -32 c-3 -44
-29 -44 -34 0 -3 24 -6 28 -12 15z"/>
<path d="M481 301 l-1 -44 25 23 25 23 0 -21 c0 -12 5 -22 10 -22 6 0 10 18
10 40 0 44 -13 51 -32 20 -17 -26 -26 -25 -31 3 -2 12 -5 2 -6 -22z"/>
<path d="M568 328 c7 -7 12 -25 12 -40 0 -15 5 -28 10 -28 6 0 10 12 10 26 0
15 8 33 18 40 15 12 12 13 -22 14 -31 0 -37 -3 -28 -12z"/>
<path d="M640 300 c0 -35 3 -40 23 -40 13 0 28 5 34 11 16 16 5 39 -18 39 -10
0 -19 7 -19 15 0 8 -4 15 -10 15 -5 0 -10 -18 -10 -40z m50 -9 c0 -5 -7 -11
-15 -15 -9 -3 -15 0 -15 9 0 8 7 15 15 15 8 0 15 -4 15 -9z"/>
<path d="M750 300 c0 -48 17 -54 22 -7 2 17 8 32 13 32 6 0 11 -15 13 -32 5
-47 22 -41 22 7 0 39 -1 40 -35 40 -34 0 -35 -1 -35 -40z"/>
<path d="M840 300 c0 -22 5 -40 10 -40 6 0 10 5 10 10 0 6 6 10 14 10 7 0 19
7 26 15 17 20 -3 45 -36 45 -21 0 -24 -5 -24 -40z m50 10 c0 -5 -7 -10 -15
-10 -8 0 -15 5 -15 10 0 6 7 10 15 10 8 0 15 -4 15 -10z"/>
<path d="M933 333 c-7 -2 -13 -18 -13 -34 0 -22 6 -30 25 -35 29 -7 55 10 55
35 0 33 -32 49 -67 34z m47 -33 c0 -24 -25 -33 -40 -14 -10 11 -10 17 0 28 15
19 40 10 40 -14z"/>
<path d="M1018 334 c-2 -5 -1 -25 3 -44 5 -28 7 -30 8 -10 2 25 2 25 17 5 l15
-20 12 20 c11 19 11 19 18 -5 5 -19 7 -15 8 20 l0 45 -20 -25 -21 -24 -17 23
c-10 13 -20 20 -23 15z"/>
<path d="M1120 330 c0 -5 5 -10 10 -10 6 0 10 -13 10 -30 0 -16 5 -30 10 -30
6 0 10 14 10 30 0 17 5 30 10 30 6 0 10 5 10 10 0 6 -13 10 -30 10 -16 0 -30
-4 -30 -10z"/>
<path d="M431 204 c0 -11 3 -14 6 -6 3 7 2 16 -1 19 -3 4 -6 -2 -5 -13z"/>
<path d="M690 205 c-11 -13 -10 -14 4 -9 9 3 16 10 16 15 0 13 -6 11 -20 -6z"/>
<path d="M767 213 c-3 -5 -1 -17 4 -28 6 -17 7 -16 6 8 -1 28 -3 32 -10 20z"/>
<path d="M496 173 c-6 -14 -5 -15 5 -6 7 7 10 15 7 18 -3 3 -9 -2 -12 -12z"/>
<path d="M730 174 c0 -8 5 -12 10 -9 6 4 8 11 5 16 -9 14 -15 11 -15 -7z"/>
</g>
</svg>
